<svg width="25" height="24" viewBox="0 0 25 24" fill="none" xmlns="http://www.w3.org/2000/svg">
<path d="M16.1378 14.9615C16.5308 15.0925 16.9555 14.8801 17.0865 14.4872C17.2175 14.0942 17.0051 13.6695 16.6122 13.5385L16.1378 14.9615ZM13 13.125H12.25C12.25 13.4478 12.4566 13.7344 12.7628 13.8365L13 13.125ZM13.75 8.42087C13.75 8.00666 13.4142 7.67087 13 7.67087C12.5858 7.67087 12.25 8.00666 12.25 8.42087H13.75ZM16.6122 13.5385L13.2372 12.4135L12.7628 13.8365L16.1378 14.9615L16.6122 13.5385ZM13.75 13.125V8.42087H12.25V13.125H13.75ZM21.25 12C21.25 16.5563 17.5563 20.25 13 20.25V21.75C18.3848 21.75 22.75 17.3848 22.75 12H21.25ZM13 20.25C8.44365 20.25 4.75 16.5563 4.75 12H3.25C3.25 17.3848 7.61522 21.75 13 21.75V20.25ZM4.75 12C4.75 7.44365 8.44365 3.75 13 3.75V2.25C7.61522 2.25 3.25 6.61522 3.25 12H4.75ZM13 3.75C17.5563 3.75 21.25 7.44365 21.25 12H22.75C22.75 6.61522 18.3848 2.25 13 2.25V3.75Z" fill="#666666"/>
</svg>
